<svg width="60" height="58" viewBox="0 0 60 58" fill="none" xmlns="http://www.w3.org/2000/svg">
<g filter="url(#filter0_d_5686_8)">
<path fill-rule="evenodd" clip-rule="evenodd" d="M32.2744 5.09343V0.104652L26.8308 0.0439453L24.79 3.43022L27.2848 5.92586L32.2744 5.09343ZM26.4532 10.9146L19.8004 4.26099L16.474 7.58823L22.1472 12.641L26.4532 10.9146ZM33.4478 14.8057L30.1264 12.3899L30.7301 9.67305L36.4324 9.25226L43.9168 15.0726L42.2536 20.0622L39.7588 21.7263L37.264 20.0622V17.5674L34.7692 14.241L33.4478 14.8057ZM53.0644 47.5051H51.4012C50.942 47.5051 50.5696 47.1327 50.5696 46.6735C50.5696 46.2142 50.942 45.8419 51.4012 45.8419H53.0644C53.5237 45.8419 53.896 46.2142 53.896 46.6735C53.896 47.1327 53.5237 47.5051 53.0644 47.5051ZM53.0644 35.8627H54.7277C55.1869 35.8627 55.5593 35.4903 55.5593 35.0311C55.5593 34.5718 55.1869 34.1995 54.7277 34.1995H53.0644C52.6052 34.1995 52.2328 34.5718 52.2328 35.0311C52.2328 35.4903 52.6052 35.8627 53.0644 35.8627ZM43.0852 35.8627L48.0748 32.5363V29.2098L43.0852 24.2202L39.7588 27.5466L36.4324 24.2202L33.106 26.715L36.4324 30.8731L33.9376 35.8627L31.4428 31.7047L25.6216 29.2098L28.948 22.557L31.4428 19.2306L25.6216 15.9042L22.2952 19.2306L11.4844 8.41983L4.8316 15.9042L6.78586 23.9558L4 26.715L6.4948 34.1995L26.4532 44.1787L28.948 40.0207L33.9376 43.3471L37.264 49.9999L41.422 43.3471H48.0748L48.9064 38.3575L43.0852 35.8627Z" fill="#0E8784"/>
</g>
<defs>
<filter id="filter0_d_5686_8" x="0" y="0.0439453" width="59.5592" height="57.9561" filterUnits="userSpaceOnUse" color-interpolation-filters="sRGB">
<feFlood flood-opacity="0" result="BackgroundImageFix"/>
<feColorMatrix in="SourceAlpha" type="matrix" values="0 0 0 0 0 0 0 0 0 0 0 0 0 0 0 0 0 0 127 0" result="hardAlpha"/>
<feOffset dy="4"/>
<feGaussianBlur stdDeviation="2"/>
<feComposite in2="hardAlpha" operator="out"/>
<feColorMatrix type="matrix" values="0 0 0 0 0 0 0 0 0 0 0 0 0 0 0 0 0 0 0.25 0"/>
<feBlend mode="normal" in2="BackgroundImageFix" result="effect1_dropShadow_5686_8"/>
<feBlend mode="normal" in="SourceGraphic" in2="effect1_dropShadow_5686_8" result="shape"/>
</filter>
</defs>
</svg>
